<svg width="26" height="25" viewBox="0 0 26 25" fill="none" xmlns="http://www.w3.org/2000/svg">
<g clip-path="url(#clip0_1_74)">
<path d="M4.33333 9.37502H9.75C9.75 8.22919 8.775 7.29169 7.58333 7.29169H4.33333C3.7375 7.29169 3.25 7.76044 3.25 8.33335C3.25 8.90627 3.7375 9.37502 4.33333 9.37502Z" fill="#323232"/>
<path d="M23.8333 14.6458V8.33333C23.8333 7.1875 22.8583 6.25 21.6666 6.25H14.8525L13.7041 5.14583L15.2316 3.67708L14.4625 2.9375L10.6383 6.61458L11.4075 7.35417L12.935 5.88542L14.0833 6.98958V9.375C14.0833 10.5208 13.1083 11.4583 11.9166 11.4583H9.70665C9.46831 11.2917 9.21915 11.1458 8.95915 11.0104L8.52581 11.9375L8.02748 11.7187L8.46081 10.7813C7.86498 10.5521 7.19331 10.4167 6.49998 10.4167C5.92581 10.4167 5.37331 10.5313 4.85331 10.6875L5.22165 11.6354L4.71248 11.8229L4.33331 10.8542C3.18498 11.3333 2.26415 12.1875 1.70081 13.2604L2.66498 13.6771L2.43748 14.1563L1.46248 13.7396C1.22415 14.3125 1.08331 14.9583 1.08331 15.625C1.08331 16.1771 1.20248 16.7083 1.36498 17.2083L2.35081 16.8542L2.54581 17.3437L1.53831 17.7083C2.03665 18.8125 2.92498 19.6979 4.04081 20.2396L4.47415 19.3125L4.97248 19.5312L4.53915 20.4687C5.13498 20.6979 5.80665 20.8333 6.49998 20.8333C7.07415 20.8333 7.62665 20.7187 8.14665 20.5625L7.77831 19.6146L8.28748 19.4271L8.66665 20.3958C9.81498 19.9167 10.7358 19.0625 11.2991 17.9896L10.335 17.5729L10.5625 17.0937L11.5375 17.5104C11.6458 17.2396 11.7325 16.9479 11.7975 16.6562H17.3875C17.3658 16.8333 17.3333 17.0104 17.3333 17.1875C17.3333 19.1979 19.0341 20.8333 21.125 20.8333C23.2158 20.8333 24.9166 19.1979 24.9166 17.1875C24.9166 16.1979 24.505 15.3021 23.8333 14.6458ZM6.49998 18.75C4.70165 18.75 3.24998 17.3542 3.24998 15.625C3.24998 13.8958 4.70165 12.5 6.49998 12.5C8.29831 12.5 9.74998 13.8958 9.74998 15.625C9.74998 17.3542 8.29831 18.75 6.49998 18.75ZM11.7758 14.5833C11.7325 14.3958 11.6891 14.2187 11.635 14.0417L10.6491 14.3958L10.4541 13.9063L11.4616 13.5417H11.9166C14.3108 13.5417 16.25 11.6771 16.25 9.375V8.33333H21.6666V13.5938C21.4933 13.5729 21.3091 13.5417 21.125 13.5417C20.0958 13.5417 19.1641 13.9375 18.4816 14.5833H11.7758ZM21.125 18.75C20.2258 18.75 19.5 18.0521 19.5 17.1875C19.5 16.3229 20.2258 15.625 21.125 15.625C22.0241 15.625 22.75 16.3229 22.75 17.1875C22.75 18.0521 22.0241 18.75 21.125 18.75Z" fill="#323232"/>
</g>
<defs>
<clipPath id="clip0_1_74">
<rect width="26" height="25" fill="white"/>
</clipPath>
</defs>
</svg>
