<svg width="59" height="70" viewBox="0 0 59 70" fill="none" xmlns="http://www.w3.org/2000/svg">
<path d="M44.4 1H21C9.95431 1 1 9.9543 1 21V54.75C1 62.6201 7.37994 69 15.25 69C38.8602 69 58 49.8602 58 26.25V14.6C58 7.08893 51.9111 1 44.4 1Z" fill="black" stroke="black"/>
<path d="M33.5964 36.2042C34.5072 36.2042 35.3086 35.7105 35.7214 34.9639L40.0686 27.1488C40.5179 26.3541 39.935 25.3667 39.0122 25.3667H21.0407L19.8993 22.9583H15.9286V25.3667H18.3572L22.7286 34.5063L21.0893 37.4445C20.2029 39.0581 21.3686 41.0208 23.2143 41.0208H37.7857V38.6125H23.2143L24.55 36.2042H33.5964ZM22.1943 27.775H36.9479L33.5964 33.7958H25.0722L22.1943 27.775ZM23.2143 42.225C21.8786 42.225 20.7979 43.3088 20.7979 44.6333C20.7979 45.9579 21.8786 47.0417 23.2143 47.0417C24.55 47.0417 25.6429 45.9579 25.6429 44.6333C25.6429 43.3088 24.55 42.225 23.2143 42.225ZM35.3572 42.225C34.0214 42.225 32.9407 43.3088 32.9407 44.6333C32.9407 45.9579 34.0214 47.0417 35.3572 47.0417C36.6929 47.0417 37.7857 45.9579 37.7857 44.6333C37.7857 43.3088 36.6929 42.225 35.3572 42.225Z" fill="#EAEAEA"/>
</svg>
