<svg width="19" height="19" viewBox="0 0 19 19" fill="none" xmlns="http://www.w3.org/2000/svg">
<g clip-path="url(#clip0_1_77)">
<path d="M5.54167 4.75026H18.2083C18.4183 4.75026 18.6197 4.66685 18.7681 4.51839C18.9166 4.36992 19 4.16856 19 3.9586C19 3.74863 18.9166 3.54727 18.7681 3.3988C18.6197 3.25034 18.4183 3.16693 18.2083 3.16693H5.54167C5.3317 3.16693 5.13034 3.25034 4.98187 3.3988C4.83341 3.54727 4.75 3.74863 4.75 3.9586C4.75 4.16856 4.83341 4.36992 4.98187 4.51839C5.13034 4.66685 5.3317 4.75026 5.54167 4.75026Z" fill="#323232"/>
<path d="M18.2083 8.70807H5.54167C5.3317 8.70807 5.13034 8.79148 4.98187 8.93994C4.83341 9.08841 4.75 9.28978 4.75 9.49974C4.75 9.7097 4.83341 9.91107 4.98187 10.0595C5.13034 10.208 5.3317 10.2914 5.54167 10.2914H18.2083C18.4183 10.2914 18.6197 10.208 18.7681 10.0595C18.9166 9.91107 19 9.7097 19 9.49974C19 9.28978 18.9166 9.08841 18.7681 8.93994C18.6197 8.79148 18.4183 8.70807 18.2083 8.70807Z" fill="#323232"/>
<path d="M18.2083 14.25H5.54167C5.3317 14.25 5.13034 14.3334 4.98187 14.4819C4.83341 14.6303 4.75 14.8317 4.75 15.0417C4.75 15.2516 4.83341 15.453 4.98187 15.6015C5.13034 15.7499 5.3317 15.8333 5.54167 15.8333H18.2083C18.4183 15.8333 18.6197 15.7499 18.7681 15.6015C18.9166 15.453 19 15.2516 19 15.0417C19 14.8317 18.9166 14.6303 18.7681 14.4819C18.6197 14.3334 18.4183 14.25 18.2083 14.25Z" fill="#323232"/>
<path d="M1.58333 5.54166C2.45778 5.54166 3.16667 4.83278 3.16667 3.95833C3.16667 3.08388 2.45778 2.375 1.58333 2.375C0.708882 2.375 0 3.08388 0 3.95833C0 4.83278 0.708882 5.54166 1.58333 5.54166Z" fill="#323232"/>
<path d="M1.58333 11.0836C2.45778 11.0836 3.16667 10.3747 3.16667 9.50026C3.16667 8.62581 2.45778 7.91693 1.58333 7.91693C0.708882 7.91693 0 8.62581 0 9.50026C0 10.3747 0.708882 11.0836 1.58333 11.0836Z" fill="#323232"/>
<path d="M1.58333 16.6247C2.45778 16.6247 3.16667 15.9158 3.16667 15.0414C3.16667 14.167 2.45778 13.4581 1.58333 13.4581C0.708882 13.4581 0 14.167 0 15.0414C0 15.9158 0.708882 16.6247 1.58333 16.6247Z" fill="#323232"/>
</g>
<defs>
<clipPath id="clip0_1_77">
<rect width="19" height="19" fill="white"/>
</clipPath>
</defs>
</svg>
