<svg width="12" height="12" viewBox="0 0 12 12" fill="none" xmlns="http://www.w3.org/2000/svg">
<g clip-path="url(#clip0_1_172)">
<path d="M11.8534 11.1469L8.86889 8.16235C9.6822 7.16765 10.0821 5.8984 9.98581 4.61713C9.88954 3.33586 9.3045 2.14061 8.35168 1.27861C7.39887 0.416604 6.15119 -0.0462051 4.86671 -0.0140892C3.58224 0.0180267 2.35924 0.54261 1.4507 1.45116C0.542151 2.3597 0.017567 3.58269 -0.0145489 4.86717C-0.0466648 6.15165 0.416144 7.39933 1.27815 8.35214C2.14015 9.30496 3.3354 9.89 4.61667 9.98627C5.89794 10.0825 7.16719 9.68266 8.16189 8.86935L11.1464 11.8539C11.2407 11.9449 11.367 11.9953 11.4981 11.9942C11.6292 11.993 11.7546 11.9405 11.8473 11.8478C11.94 11.7551 11.9926 11.6296 11.9937 11.4986C11.9949 11.3675 11.9445 11.2412 11.8534 11.1469ZM4.99989 9.00035C4.20876 9.00035 3.4354 8.76575 2.77761 8.32623C2.11981 7.8867 1.60712 7.26199 1.30437 6.53108C1.00162 5.80018 0.922407 4.99591 1.07675 4.21999C1.23109 3.44406 1.61205 2.73133 2.17146 2.17192C2.73087 1.61251 3.4436 1.23155 4.21953 1.07721C4.99545 0.922867 5.79972 1.00208 6.53062 1.30483C7.26153 1.60758 7.88624 2.12027 8.32577 2.77807C8.76529 3.43586 8.99989 4.20922 8.99989 5.00035C8.9987 6.06085 8.57689 7.07757 7.827 7.82746C7.07711 8.57735 6.06039 8.99916 4.99989 9.00035Z" fill="#323232"/>
</g>
<defs>
<clipPath id="clip0_1_172">
<rect width="12" height="12" fill="white"/>
</clipPath>
</defs>
</svg>
