<svg width="12" height="11" viewBox="0 0 12 11" fill="none" xmlns="http://www.w3.org/2000/svg">
<g clip-path="url(#clip0_1_173)">
<path d="M11.8534 10.218L8.86889 7.48216C9.6822 6.57035 10.0821 5.40687 9.98581 4.23238C9.88954 3.05788 9.3045 1.96224 8.35168 1.17207C7.39887 0.381895 6.15119 -0.0423471 4.86671 -0.0129075C3.58224 0.0165321 2.35924 0.497401 1.4507 1.33023C0.542151 2.16307 0.017567 3.28414 -0.0145489 4.46158C-0.0466648 5.63902 0.416144 6.78273 1.27815 7.65614C2.14015 8.52955 3.3354 9.06585 4.61667 9.15409C5.89794 9.24234 7.16719 8.87578 8.16189 8.13025L11.1464 10.866C11.2407 10.9495 11.367 10.9957 11.4981 10.9947C11.6292 10.9936 11.7546 10.9454 11.8473 10.8605C11.94 10.7755 11.9926 10.6605 11.9937 10.5403C11.9949 10.4202 11.9445 10.3044 11.8534 10.218ZM4.99989 8.25033C4.20876 8.25033 3.4354 8.03528 2.77761 7.63238C2.11981 7.22949 1.60712 6.65683 1.30437 5.98683C1.00162 5.31684 0.922407 4.57959 1.07675 3.86833C1.23109 3.15707 1.61205 2.50373 2.17146 1.99094C2.73087 1.47814 3.4436 1.12893 4.21953 0.987448C4.99545 0.845969 5.79972 0.918581 6.53062 1.1961C7.26153 1.47362 7.88624 1.94359 8.32577 2.54657C8.76529 3.14955 8.99989 3.85846 8.99989 4.58366C8.9987 5.55579 8.57689 6.48778 7.827 7.17518C7.07711 7.86258 6.06039 8.24924 4.99989 8.25033Z" fill="#323232"/>
</g>
<defs>
<clipPath id="clip0_1_173">
<rect width="12" height="11" fill="white"/>
</clipPath>
</defs>
</svg>
