<svg width="23" height="23" viewBox="0 0 23 23" fill="none" xmlns="http://www.w3.org/2000/svg">
<g clip-path="url(#clip0_1_76)">
<path d="M13.4166 23C12.6612 23.0022 11.9128 22.8543 11.2149 22.5649C10.5171 22.2755 9.88363 21.8504 9.35139 21.3143C8.27932 20.2323 7.67786 18.7708 7.67786 17.2476C7.67786 15.7244 8.27932 14.2629 9.35139 13.1809L13.4166 8.86746L17.502 13.1982C18.5646 14.2823 19.1582 15.7409 19.1544 17.2589C19.1506 18.777 18.5499 20.2326 17.4819 21.3114C16.9499 21.8481 16.3166 22.2737 15.6187 22.5636C14.9208 22.8535 14.1723 23.0018 13.4166 23V23ZM13.4166 11.6639L10.7256 14.5168C10.0017 15.2362 9.59302 16.2135 9.58942 17.2341C9.58583 18.2546 9.98762 19.2348 10.7065 19.9592C11.4363 20.6568 12.407 21.0461 13.4166 21.0461C14.4262 21.0461 15.397 20.6568 16.1268 19.9592V19.9592C16.8414 19.2378 17.2422 18.2635 17.2422 17.2481C17.2422 16.2327 16.8414 15.2584 16.1268 14.537L13.4166 11.6639ZM4.79164 11.4962C4.16216 11.4979 3.53859 11.3747 2.95707 11.1337C2.37554 10.8927 1.84763 10.5387 1.40393 10.0922C0.510642 9.1906 0.00949097 7.97274 0.00949097 6.70354C0.00949097 5.43434 0.510642 4.21648 1.40393 3.31488L4.79164 0L8.17168 3.30433C9.06855 4.20513 9.57271 5.42411 9.57415 6.69525C9.57559 7.9664 9.07418 9.18651 8.17935 10.0893C7.73574 10.536 7.20785 10.8901 6.6263 11.1311C6.04476 11.3721 5.42114 11.4952 4.79164 11.4933V11.4962ZM4.79164 2.6795L2.75135 4.67475C2.22847 5.21783 1.93982 5.94456 1.94759 6.69841C1.95536 7.45225 2.25891 8.17288 2.79286 8.70508C3.32682 9.23727 4.04845 9.53845 4.80231 9.54372C5.55618 9.549 6.28195 9.25796 6.82331 8.73329V8.73329C7.35931 8.19238 7.66003 7.46169 7.66003 6.70019C7.66003 5.93869 7.35931 5.20799 6.82331 4.66708L4.79164 2.6795ZM19.1666 9.5795C18.6628 9.58026 18.1638 9.48103 17.6986 9.28758C17.2334 9.09413 16.8112 8.81028 16.4565 8.4525C15.742 7.73126 15.3411 6.75709 15.3411 5.74185C15.3411 4.72662 15.742 3.75245 16.4565 3.03121L19.1494 0.037375L21.9075 3.06667C22.6079 3.79076 22.9969 4.76035 22.9912 5.76775C22.9854 6.77516 22.5854 7.74026 21.8768 8.45633V8.45633C21.5215 8.81291 21.0991 9.09551 20.6339 9.2878C20.1687 9.48009 19.67 9.57826 19.1666 9.57663V9.5795ZM19.159 2.89513L17.8461 4.35275C17.4817 4.70757 17.2732 5.19259 17.2665 5.70111C17.2598 6.20963 17.4553 6.70001 17.8101 7.06435C18.1649 7.4287 18.65 7.63718 19.1585 7.64392C19.667 7.65066 20.1574 7.45511 20.5217 7.10029C20.879 6.73959 21.0794 6.25243 21.0794 5.74473C21.0794 5.23703 20.879 4.74987 20.5217 4.38917L19.159 2.89513Z" fill="#343330"/>
</g>
<defs>
<clipPath id="clip0_1_76">
<rect width="23" height="23" fill="white"/>
</clipPath>
</defs>
</svg>
