<svg width="17" height="16" viewBox="0 0 17 16" fill="none" xmlns="http://www.w3.org/2000/svg">
<path d="M14.5775 8C14.5775 8.13261 14.5241 8.25979 14.429 8.35355C14.3339 8.44732 14.205 8.5 14.0705 8.5H2.91555C2.78107 8.5 2.65211 8.44732 2.55702 8.35355C2.46193 8.25979 2.40851 8.13261 2.40851 8C2.40851 7.86739 2.46193 7.74021 2.55702 7.64645C2.65211 7.55268 2.78107 7.5 2.91555 7.5H14.0705C14.205 7.5 14.3339 7.55268 14.429 7.64645C14.5241 7.74021 14.5775 7.86739 14.5775 8ZM2.91555 4.5H14.0705C14.205 4.5 14.3339 4.44732 14.429 4.35355C14.5241 4.25979 14.5775 4.13261 14.5775 4C14.5775 3.86739 14.5241 3.74021 14.429 3.64645C14.3339 3.55268 14.205 3.5 14.0705 3.5H2.91555C2.78107 3.5 2.65211 3.55268 2.55702 3.64645C2.46193 3.74021 2.40851 3.86739 2.40851 4C2.40851 4.13261 2.46193 4.25979 2.55702 4.35355C2.65211 4.44732 2.78107 4.5 2.91555 4.5ZM14.0705 11.5H2.91555C2.78107 11.5 2.65211 11.5527 2.55702 11.6464C2.46193 11.7402 2.40851 11.8674 2.40851 12C2.40851 12.1326 2.46193 12.2598 2.55702 12.3536C2.65211 12.4473 2.78107 12.5 2.91555 12.5H14.0705C14.205 12.5 14.3339 12.4473 14.429 12.3536C14.5241 12.2598 14.5775 12.1326 14.5775 12C14.5775 11.8674 14.5241 11.7402 14.429 11.6464C14.3339 11.5527 14.205 11.5 14.0705 11.5Z" fill="#1B1B1B"/>
</svg>
