<svg width="34" height="33" viewBox="0 0 34 33" fill="none" xmlns="http://www.w3.org/2000/svg">
<path d="M26.5625 14.4375C25.2836 14.4406 24.0349 14.8156 22.9777 15.5141C21.9204 16.2126 21.1031 17.2025 20.6311 18.3563C20.4838 18.3408 20.3357 18.333 20.1875 18.3331C17.8434 18.3331 15.9375 20.2357 15.9375 22.5728C15.9375 24.9099 17.8434 26.8125 20.1875 26.8125H26.5625C28.2533 26.8125 29.8748 26.1606 31.0703 25.0002C32.2659 23.8399 32.9375 22.266 32.9375 20.625C32.9375 18.984 32.2659 17.4102 31.0703 16.2498C29.8748 15.0894 28.2533 14.4375 26.5625 14.4375ZM26.5625 24.75H20.1875C19.0161 24.75 18.0625 23.7729 18.0625 22.5728C18.0625 21.3727 19.0161 20.3956 20.1875 20.3956C20.4509 20.3948 20.7118 20.4448 20.9552 20.5425C21.0999 20.6 21.2558 20.6258 21.412 20.618C21.5681 20.6102 21.7206 20.5691 21.8585 20.4976C21.9964 20.4261 22.1163 20.3259 22.2097 20.2042C22.3031 20.0825 22.3677 19.9423 22.3988 19.7936C22.5609 19.0294 22.9428 18.3255 23.5005 17.7635C24.0581 17.2016 24.7685 16.8046 25.5491 16.6188C26.3298 16.4329 27.1488 16.4658 27.9111 16.7135C28.6733 16.9612 29.3475 17.4137 29.8555 18.0183C30.3635 18.623 30.6843 19.3551 30.7808 20.1297C30.8774 20.9042 30.7456 21.6895 30.4008 22.3942C30.0561 23.099 29.5124 23.6945 28.833 24.1114C28.1536 24.5284 27.3663 24.7498 26.5625 24.75ZM3.1875 20.625V22.6875C3.1875 22.961 3.07556 23.2233 2.8763 23.4167C2.67704 23.6101 2.40679 23.7188 2.125 23.7188C1.84321 23.7188 1.57296 23.6101 1.3737 23.4167C1.17444 23.2233 1.0625 22.961 1.0625 22.6875V20.625C1.0626 17.9896 1.86301 15.4126 3.36368 13.2162C4.86436 11.0199 6.99873 9.3015 9.50001 8.27594C12.0013 7.25038 14.7585 6.96313 17.4271 7.45007C20.0956 7.93701 22.5571 9.17655 24.5039 11.0138C24.699 11.2058 24.8087 11.4644 24.8097 11.7341C24.8107 12.0038 24.7028 12.2631 24.5091 12.4565C24.3154 12.6499 24.0514 12.7619 23.7736 12.7686C23.4958 12.7753 23.2264 12.6761 23.023 12.4923C21.3758 10.9376 19.2929 9.88859 17.0348 9.47647C14.7767 9.06435 12.4436 9.30739 10.327 10.1752C8.21041 11.043 6.40432 12.4971 5.1345 14.3557C3.86468 16.2143 3.18746 18.3949 3.1875 20.625ZM7.4375 20.625V22.6875C7.4375 22.961 7.32556 23.2233 7.1263 23.4167C6.92704 23.6101 6.65679 23.7188 6.375 23.7188C6.09321 23.7188 5.82296 23.6101 5.6237 23.4167C5.42444 23.2233 5.3125 22.961 5.3125 22.6875V20.625C5.31361 18.9101 5.80425 17.2289 6.72999 15.7682C7.65573 14.3074 8.98035 13.1242 10.5569 12.3498C12.1334 11.5753 13.9002 11.24 15.6611 11.381C17.4221 11.522 19.1083 12.1338 20.5328 13.1485C20.6492 13.2271 20.7482 13.3275 20.824 13.4439C20.8997 13.5602 20.9507 13.6901 20.974 13.8259C20.9972 13.9617 20.9922 14.1006 20.9592 14.2345C20.9263 14.3684 20.866 14.4945 20.7821 14.6054C20.6981 14.7163 20.5921 14.8098 20.4703 14.8804C20.3486 14.9509 20.2135 14.9971 20.073 15.0162C19.9326 15.0352 19.7896 15.0268 19.6526 14.9914C19.5155 14.956 19.3872 14.8944 19.2751 14.8101C18.1672 14.021 16.8557 13.5453 15.4861 13.4357C14.1166 13.3261 12.7425 13.5869 11.5164 14.1892C10.2903 14.7915 9.26011 15.7117 8.54011 16.8477C7.8201 17.9838 7.43845 19.2912 7.4375 20.625ZM15.6148 17.6151C15.1464 17.5066 14.6587 17.5025 14.1884 17.6032C13.7182 17.7039 13.2775 17.9067 12.8996 18.1963C12.5217 18.486 12.2163 18.855 12.0063 19.2756C11.7964 19.6963 11.6874 20.1576 11.6875 20.625V22.6875C11.6875 22.961 11.5756 23.2233 11.3763 23.4167C11.177 23.6101 10.9068 23.7188 10.625 23.7188C10.3432 23.7188 10.073 23.6101 9.8737 23.4167C9.67444 23.2233 9.5625 22.961 9.5625 22.6875V20.625C9.56232 19.8462 9.74393 19.0774 10.0937 18.3764C10.4434 17.6755 10.9523 17.0605 11.582 16.5777C12.2116 16.0949 12.9458 15.7569 13.7294 15.5889C14.513 15.421 15.3256 15.4275 16.1062 15.608C16.242 15.6393 16.37 15.6963 16.4831 15.7756C16.5962 15.855 16.6921 15.9552 16.7653 16.0705C16.8385 16.1859 16.8876 16.3141 16.9097 16.4478C16.9319 16.5815 16.9267 16.7182 16.8944 16.85C16.8621 16.9818 16.8035 17.1061 16.7217 17.2159C16.6399 17.3256 16.5367 17.4187 16.4178 17.4898C16.299 17.5608 16.1669 17.6084 16.0291 17.6299C15.8914 17.6514 15.7505 17.6464 15.6148 17.6151Z" fill="#343330"/>
</svg>
